# xmcd
#
# Track frame offsets: 
#        150
#        10887
#        24505
#        55325
#        63637
#        76912
#        95190
#        114129
#        125615
#        155685
#        167747
#        191330
#        208657
#        232437
#        244925
#
# Disc length: 3357 seconds
#
# Revision: 0
# Processed by: cddbd v1.5.2PL0 Copyright (c) Steve Scherf et al.
# Submitted via: ExactAudioCopy v0.90b4
#
DISCID=d10d1b0f
DTITLE=Sean Costello and His Jivebombers - Call the Cops
DYEAR=1996
DGENRE=Blues
TTITLE0=Take Me Back
TTITLE1=One More Chance With You
TTITLE2=Anna Lee
TTITLE3=Call the Cops
TTITLE4=Why Baby?
TTITLE5=Sail On
TTITLE6=Jelly Roll
TTITLE7=Sit Down Baby
TTITLE8=Blues Para Mi Angelita
TTITLE9=(Let Me) Take You Home
TTITLE10=My Favorite Things
TTITLE11=Take a Walk With Me
TTITLE12=I'm Leaving
TTITLE13=Everybody Wants Her
TTITLE14=She Was a Dreamer
EXTD=
EXTT0=
EXTT1=
EXTT2=
EXTT3=
EXTT4=
EXTT5=
EXTT6=
EXTT7=
EXTT8=
EXTT9=
EXTT10=
EXTT11=
EXTT12=
EXTT13=
EXTT14=
PLAYORDER=
